<?xml version="1.0" standalone="no"?><!DOCTYPE svg PUBLIC "-//W3C//DTD SVG 1.1//EN" "http://www.w3.org/Graphics/SVG/1.1/DTD/svg11.dtd"><svg class="icon" width="128px" height="128.00px" viewBox="0 0 1024 1024" version="1.1" xmlns="http://www.w3.org/2000/svg"><path d="M653.312 319.488l-140.8 140.8-140.8-140.8-52.736 52.736 140.8 140.8-140.8 140.8 52.736 52.736 140.8-140.8 140.8 140.8 52.736-52.736-140.8-140.8 140.8-140.8-52.736-52.736z m-141.312-214.016c225.28 0 407.04 181.76 407.04 407.04s-181.76 407.04-407.04 407.04-407.04-181.76-407.04-407.04 181.76-407.04 407.04-407.04z m0-74.24c-265.216 0-480.768 215.552-480.768 480.768s215.552 480.768 480.768 480.768 480.768-215.552 480.768-480.768-215.552-480.768-480.768-480.768z" /></svg>