<?xml version="1.0" standalone="no"?><!DOCTYPE svg PUBLIC "-//W3C//DTD SVG 1.1//EN" "http://www.w3.org/Graphics/SVG/1.1/DTD/svg11.dtd"><svg class="icon" width="128px" height="128.00px" viewBox="0 0 1024 1024" version="1.1" xmlns="http://www.w3.org/2000/svg"><path fill="#000000" d="M512 96c-229.76 0-416 186.24-416 416s186.24 416 416 416 416-186.24 416-416-186.24-416-416-416zM577.248 665.056c-31.392 47.136-63.328 83.456-117.056 83.456-36.672-5.984-51.744-32.256-43.808-59.04l69.12-228.928c1.696-5.6-1.12-11.584-6.24-13.408-5.088-1.792-15.072 4.832-23.712 14.304l-41.792 50.272c-1.12-8.448-0.128-22.4-0.128-28.032 31.392-47.136 82.976-84.32 117.952-84.32 33.248 3.392 48.992 29.984 43.2 59.2l-69.6 230.048c-0.928 5.184 1.824 10.464 6.528 12.128 5.12 1.792 15.872-4.832 24.544-14.304l41.76-50.24c1.12 8.448-0.768 23.232-0.768 28.864zM567.936 366.048c-26.432 0-47.872-19.264-47.872-47.616s21.44-47.584 47.872-47.584 47.872 19.264 47.872 47.584c0 28.384-21.44 47.616-47.872 47.616z" /></svg>