<?xml version="1.0" standalone="no"?><!DOCTYPE svg PUBLIC "-//W3C//DTD SVG 1.1//EN" "http://www.w3.org/Graphics/SVG/1.1/DTD/svg11.dtd"><svg class="icon" width="128px" height="128.00px" viewBox="0 0 1024 1024" version="1.1" xmlns="http://www.w3.org/2000/svg"><path fill="#000000" d="M512 914.285714C734.176265 914.285714 914.285714 734.176265 914.285714 512 914.285714 289.823735 734.176265 109.714286 512 109.714286 289.823735 109.714286 109.714286 289.823735 109.714286 512 109.714286 734.176265 289.823735 914.285714 512 914.285714ZM297.44762 548.538807C314.115747 533.991055 373.957573 521.41293 392.745988 521.41293 399.693875 536.569179 445.283653 573.742576 445.283653 573.742576 445.283653 573.742576 522.616095 380.331774 726.55238 351.085714 626.118672 400.748145 543.136775 513.366307 493.705322 653.508805 409.743239 681.941067 399.693873 674.865518 399.693873 674.865518 399.693873 674.865518 334.075109 573.742579 297.44762 548.538807Z" /></svg>