<?xml version="1.0" standalone="no"?><!DOCTYPE svg PUBLIC "-//W3C//DTD SVG 1.1//EN" "http://www.w3.org/Graphics/SVG/1.1/DTD/svg11.dtd"><svg class="icon" width="128px" height="128.00px" viewBox="0 0 1024 1024" version="1.1" xmlns="http://www.w3.org/2000/svg"><path d="M936.676677 572.443627c-18.59552 69.169359-111.428835 302.915008-115.377774 312.827775-0.431835 0.959861-0.847298 1.886977-1.343601 2.797719-18.307971 31.659047-52.012607 51.804876-88.771813 53.308113-1.390673 0.255827-2.814092 0.415462-4.285606 0.415462L404.509359 941.792697c-11.864212 0-21.441335-9.641591-21.441335-21.441335 0-11.879562 9.577123-21.537526 21.441335-21.537526l318.535777 0c1.215688-0.207731 2.51017-0.367367 3.805676-0.367367 22.960944-0.048095 43.490513-11.464099 55.114249-30.602995 8.266267-20.818141 96.079242-242.588037 113.203248-306.560024 15.31787-57.208956-18.771529-116.209722-76.012208-131.574664-8.010441-2.142803-16.868179-3.149736-27.836999-3.149736l-128.968303-0.511653c-7.099698 0-13.638625-3.518127-17.668405-9.305947-3.997034-5.835915-4.877077-13.223163-2.318812-19.85828 12.551874-32.95353 20.018939-110.389156 20.018939-207.17141 0-35.591613-28.876678-64.516386-64.420195-64.516386-35.591613 0-64.516386 28.924773-64.516386 64.516386l0 21.441335c0 142.255934-115.617228 257.873162-257.873162 257.873162-11.864212 0-21.441335-9.561773-21.441335-21.521153 0-11.799744 9.577123-21.457708 21.441335-21.457708 118.543883 0 214.894302-96.398514 214.894302-214.894302l0-21.441335c0-59.303664 48.2714-107.495246 107.495246-107.495246s107.399055 48.191582 107.399055 107.495246c0 50.957579-2.046612 136.499837-14.550391 193.452967l100.636025 0.415462c14.693654 0 27.037796 1.471514 38.822191 4.621251C910.438083 409.69087 958.166107 492.322845 936.676677 572.443627L936.676677 572.443627zM275.572778 941.79372 168.173722 941.79372c-47.424102 0-85.957721-38.518269-85.957721-85.957721l0-343.830883c0-47.376007 38.533618-85.957721 85.957721-85.957721l107.399055 0c11.879562 0 21.537526 9.657964 21.537526 21.457708l0 472.847282C297.110303 932.152129 287.452339 941.79372 275.572778 941.79372L275.572778 941.79372zM254.131443 469.026256l-85.957721 0c-23.712051 0-42.97886 19.266809-42.97886 42.97886l0 343.830883c0 23.728424 19.266809 42.97886 42.97886 42.97886l85.957721 0L254.131443 469.026256 254.131443 469.026256z" /></svg>