<?xml version="1.0" standalone="no"?><!DOCTYPE svg PUBLIC "-//W3C//DTD SVG 1.1//EN" "http://www.w3.org/Graphics/SVG/1.1/DTD/svg11.dtd"><svg class="icon" width="128px" height="128.00px" viewBox="0 0 1024 1024" version="1.1" xmlns="http://www.w3.org/2000/svg"><path d="M625.105455 1008.058182l-55.016727-187.229091L116.340364 820.829091c-64.162909 0-116.340364-52.200727-116.340364-116.363636L0 169.169455c0-64.162909 52.177455-116.363636 116.340364-116.363636l791.319273 0c64.162909 0 116.340364 52.200727 116.340364 116.363636L1024 704.465455c0 64.162909-52.177455 116.363636-116.340364 116.363636l-121.344 0L625.105455 1008.058182zM116.340364 99.351273C77.870545 99.351273 46.545455 130.676364 46.545455 169.169455L46.545455 704.465455c0 38.493091 31.325091 69.818182 69.794909 69.818182l488.564364 0 40.750545 138.589091 119.296-138.589091 142.708364 0c38.469818 0 69.794909-31.325091 69.794909-69.818182L977.454545 169.169455c0-38.493091-31.325091-69.818182-69.794909-69.818182L116.340364 99.351273z"  /><path d="M849.431273 355.351273l-674.909091 0c-12.869818 0-23.272727-10.426182-23.272727-23.272727s10.402909-23.272727 23.272727-23.272727l674.909091 0c12.869818 0 23.272727 10.426182 23.272727 23.272727S862.301091 355.351273 849.431273 355.351273z"  /><path d="M616.727273 541.556364 174.522182 541.556364c-12.869818 0-23.272727-10.426182-23.272727-23.272727s10.402909-23.272727 23.272727-23.272727L616.727273 495.010909c12.869818 0 23.272727 10.426182 23.272727 23.272727S629.597091 541.556364 616.727273 541.556364z"  /></svg>