<?xml version="1.0" standalone="no"?><!DOCTYPE svg PUBLIC "-//W3C//DTD SVG 1.1//EN" "http://www.w3.org/Graphics/SVG/1.1/DTD/svg11.dtd"><svg class="icon" width="128px" height="128.00px" viewBox="0 0 1024 1024" version="1.1" xmlns="http://www.w3.org/2000/svg"><path d="M956.064 961.888c0 22.176-17.952 40.128-40.128 40.128s-40.128-17.952-40.128-40.128l-0.448-3.744c0-1.568 0.288-3.104 0.448-4.704-25.088-176.16-176.096-305.568-360-307.616-1.472 0.032-2.88 0.224-4.384 0.224-1.44 0-2.848-0.192-4.32-0.224-181.696 2.016-331.296 128.576-358.848 301.696 0.928 3.392 1.568 6.912 1.568 10.592l0.384 3.776c0 22.528-18.24 40.768-40.736 40.768s-40.768-18.24-40.768-40.768l-0.032-0.352-0.768 0c0.128-1.216 0.352-2.336 0.48-3.488 0-3.36 0.544-6.56 1.312-9.664 20.896-162.4 129.696-293.728 277.824-350.24-86.24-55.264-142.464-152.896-142.464-264.416 0-172.512 134.048-312.352 306.528-312.352s306.592 139.872 306.592 312.352c0 111.52-56.224 209.088-142.4 264.352 147.104 56.096 255.456 185.888 277.472 346.656 1.504 4.192 2.464 8.704 2.464 13.44l0.352 3.744zM747.68 333.792c0-130.432-105.696-236.16-236.128-236.16s-236.16 105.76-236.16 236.16 105.76 236.128 236.16 236.128 236.128-105.696 236.128-236.128l0 0z" /></svg>