<?xml version="1.0" standalone="no"?><!DOCTYPE svg PUBLIC "-//W3C//DTD SVG 1.1//EN" "http://www.w3.org/Graphics/SVG/1.1/DTD/svg11.dtd"><svg class="icon" width="128px" height="128.00px" viewBox="0 0 1024 1024" version="1.1" xmlns="http://www.w3.org/2000/svg"><path fill="#000000" d="M287.392 341.632H245.632v32.608H281.28c13.344-2.048 20.032-8.256 20.032-18.656-2.72-9.312-7.36-13.952-13.92-13.952zM287.392 427.84H244.96v31.904H286.72c9.728-3.392 14.592-8.48 14.592-15.264v-2.72c-2.272-9.28-6.912-13.92-13.92-13.92zM795.008 341.632l-13.92-0.672h-17.312v52.256h29.184c9.728 0 17.184-6.784 22.4-20.352v-8.48c0-9.728-6.784-17.312-20.352-22.752zM928 640h32V160h-32v-27.072C928 77.28 883.552 32 828.928 32H195.04C140.448 32 96 77.28 96 132.928V160H64v480h32v251.072C96 946.72 140.448 992 195.04 992h480.032a31.872 31.872 0 0 0 20.96-7.84l153.856-133.632a32 32 0 1 0-41.92-48.32L704 892.512v-119.552c0-20.384 15.712-36.96 35.072-36.96h157.632a32 32 0 0 0 32-32c0-1.792-0.736-3.36-1.024-5.088 0-0.576 0.32-1.056 0.32-1.664V640zM160 132.928C160 112.576 175.712 96 195.04 96h633.888C848.288 96 864 112.576 864 132.928V160H160v-27.072z m382.048 292.864l-7.808 1.344h-4.064c-8.832 0-20.128-8.16-33.952-24.448l-23.072-22.752v1.344l-0.672 111.008c-5.44 14.016-13.12 21.024-23.072 21.024h-6.784c-9.952 0-17.664-7.008-23.072-21.024V311.072c0-9.728 6.784-17.408 20.352-23.072h9.504c7.456 0 19.808 9.728 36.992 29.184l45.824 45.152c47.072-47.296 71.392-70.944 72.992-70.944A21.664 21.664 0 0 1 615.008 288h6.784c9.728 0 17.44 6.784 23.072 20.352v181.92c0 9.952-7.136 17.664-21.376 23.072h-8.48c-6.784 0-13.472-4.416-20.032-13.248-2.496-3.84-3.744-10.752-3.744-20.704v-99.456c-30.304 30.592-46.688 45.856-49.184 45.856z m-187.808 15.296v4.768c0 26.688-14.368 47.392-43.104 62.112-7.936 3.616-21.376 5.408-40.384 5.408h-55.68c-9.952 0-17.664-7.008-23.072-21.024V312.448c0-7.936 6.784-15.616 20.352-23.072L217.792 288h68.896c27.392 0 48.416 14.592 63.136 43.776 2.944 9.28 4.416 17.888 4.416 25.792 0 14.72-4.864 28.864-14.592 42.432v1.344c9.728 11.552 14.592 24.8 14.592 39.744zM864 672h-124.928C684.448 672 640 717.28 640 772.928V928H195.04C175.712 928 160 911.424 160 891.072V640h704v32z m5.344-300.512c0 23.52-12 44.576-35.968 63.136-14.72 8.352-27.936 12.544-39.712 12.544h-29.856v27.84c0 17.888-3.04 28.288-9.152 31.232 0 2.272-4.864 4.64-14.592 7.136h-6.784c-9.952 0-17.664-7.008-23.072-21.024V311.072c0-9.952 7.008-17.664 21.056-23.072h62.464c23.296 0 44.224 11.872 62.784 35.648 8.608 14.688 12.896 28.064 12.896 40.032v7.808z" /></svg>