<?xml version="1.0" standalone="no"?><!DOCTYPE svg PUBLIC "-//W3C//DTD SVG 1.1//EN" "http://www.w3.org/Graphics/SVG/1.1/DTD/svg11.dtd"><svg class="icon" width="128px" height="128.00px" viewBox="0 0 1024 1024" version="1.1" xmlns="http://www.w3.org/2000/svg"><path fill="#000000" d="M912 208H427.872l-50.368-94.176A63.936 63.936 0 0 0 321.056 80H112c-35.296 0-64 28.704-64 64v736c0 35.296 28.704 64 64 64h800c35.296 0 64-28.704 64-64v-608c0-35.296-28.704-64-64-64z m-800-64h209.056l68.448 128H912v97.984c-0.416 0-0.8-0.128-1.216-0.128H113.248c-0.416 0-0.8 0.128-1.248 0.128V144z m0 736v-96l1.248-350.144 798.752 1.216V784h0.064v96H112z" /></svg>