<?xml version="1.0" standalone="no"?><!DOCTYPE svg PUBLIC "-//W3C//DTD SVG 1.1//EN" "http://www.w3.org/Graphics/SVG/1.1/DTD/svg11.dtd"><svg class="icon" width="128px" height="128.00px" viewBox="0 0 1024 1024" version="1.1" xmlns="http://www.w3.org/2000/svg"><path fill="#000000" d="M864 64H160C107.072 64 64 107.072 64 160v608c0 52.928 43.072 96 96 96h61.92v123.232L443.84 864H864c52.928 0 96-43.072 96-96V160c0-52.928-43.072-96-96-96z m32 704a32 32 0 0 1-32 32H443.84c-10.912 0-21.664 2.816-31.072 8.064l-126.88 70.4V864c0-35.296-28.704-64-64-64H160c-17.632 0-32-14.336-32-32V160c0-17.632 14.368-32 32-32h704c17.664 0 32 14.368 32 32v608zM640 520H256a32 32 0 1 0 0 64h384a32 32 0 1 0 0-64zM768 296H256a32 32 0 0 0 0 64h512a32 32 0 1 0 0-64z" /></svg>