<?xml version="1.0" standalone="no"?><!DOCTYPE svg PUBLIC "-//W3C//DTD SVG 1.1//EN" "http://www.w3.org/Graphics/SVG/1.1/DTD/svg11.dtd"><svg class="icon" width="128px" height="128.00px" viewBox="0 0 1024 1024" version="1.1" xmlns="http://www.w3.org/2000/svg"><path fill="#000000" d="M928 640h32V160h-32v-27.072C928 77.28 883.552 32 828.928 32H195.04C140.448 32 96 77.28 96 132.928V160H64v480h32v251.072C96 946.72 140.448 992 195.04 992h480.032a31.872 31.872 0 0 0 20.96-7.84l153.856-133.632a32 32 0 1 0-41.92-48.32L704 892.512v-119.552c0-20.384 15.712-36.96 35.072-36.96h157.632a32 32 0 0 0 32-32c0-1.792-0.736-3.36-1.024-5.088 0-0.576 0.32-1.056 0.32-1.664V640z m-64 32h-124.928C684.448 672 640 717.28 640 772.928V928H195.04C175.712 928 160 911.424 160 891.072V640h704v32zM319.872 466.72c7.968 2.88 15.072 4.32 21.344 4.32h5.792c11.808 0 22.784-3.744 32.928-11.2v-14.848H334.72c-10.368 0-18.56-7.584-24.608-22.784v-9.024c0-7.488 4.704-14.592 14.112-21.344 4.096-2.912 11.456-4.352 22.08-4.352h54.976c19.04 0 30.88 6.88 35.456 20.608l0.736 5.056v63.296c0 13.024-16.032 27.488-48.128 43.424-16.416 5.536-29.44 8.32-39.072 8.32h-11.936c-31.104 0-60.064-14.336-86.816-43.04-18.368-24.128-27.52-47.872-27.52-71.264v-11.584c0-31.104 14.336-60.032 43.04-86.816C291.168 297.152 314.912 288 338.304 288h11.936c19.52 0 40.992 7.488 64.384 22.432 15.2 10.624 22.784 20.992 22.784 31.104v5.056c0 4.576-2.88 10.496-8.672 17.728-7.232 5.056-13.76 7.616-19.552 7.616-8.448 0-17.728-4.96-27.84-14.848-11.104-7.968-22.56-11.936-34.368-11.936h-5.792c-23.872 0-42.432 13.024-55.712 39.072a60.8 60.8 0 0 0-4.352 20.992v5.792c0.032 23.872 12.928 42.432 38.752 55.712z m185.632 39.072V312.608c0-10.624 7.488-18.816 22.432-24.608h9.408c10.624 0 18.816 7.488 24.608 22.432v193.184c0 10.624-7.488 18.816-22.432 24.608h-9.408c-10.624 0-18.848-7.488-24.608-22.432z m188.448-115.424v10.496h73.44c10.624 0 18.944 7.616 24.96 22.784v9.056c0 7.488-4.832 14.592-14.464 21.344-3.872 2.88-11.104 4.352-21.696 4.352h-62.208v32.192c0 19.296-5.664 30.88-16.992 34.72 0 1.216-2.784 2.176-8.32 2.912h-7.232c-10.624 0-18.816-7.488-24.608-22.432V312.608c0-10.624 7.488-18.816 22.432-24.608h122.272c10.624 0 18.944 7.488 24.96 22.432v9.408c0 10.624-7.584 18.816-22.784 24.608h-90.432l0.672 45.92zM864 160H160v-27.072C160 112.576 175.712 96 195.04 96h633.888C848.288 96 864 112.576 864 132.928V160z" /></svg>