<?xml version="1.0" standalone="no"?><!DOCTYPE svg PUBLIC "-//W3C//DTD SVG 1.1//EN" "http://www.w3.org/Graphics/SVG/1.1/DTD/svg11.dtd"><svg class="icon" width="128px" height="128.00px" viewBox="0 0 1024 1024" version="1.1" xmlns="http://www.w3.org/2000/svg"><path fill="#000000" d="M704 416H320a32 32 0 0 0 0 64h384a32 32 0 0 0 0-64zM704 608H320a32 32 0 0 0 0 64h384a32 32 0 0 0 0-64zM832 32H192C139.072 32 96 75.072 96 128v768c0 52.928 43.072 96 96 96h640c52.928 0 96-43.072 96-96V128c0-52.928-43.072-96-96-96zM320 96h384v96H320V96z m544 800a32 32 0 0 1-32 32H192c-17.632 0-32-14.336-32-32V128c0-17.632 14.368-32 32-32h64v96c0 35.296 28.704 64 64 64h384c35.296 0 64-28.704 64-64V96h64c17.664 0 32 14.368 32 32v768z" /></svg>