<?xml version="1.0" standalone="no"?><!DOCTYPE svg PUBLIC "-//W3C//DTD SVG 1.1//EN" "http://www.w3.org/Graphics/SVG/1.1/DTD/svg11.dtd"><svg class="icon" width="128px" height="128.00px" viewBox="0 0 1024 1024" version="1.1" xmlns="http://www.w3.org/2000/svg"><path fill="#000000" d="M896 64H234.656C157.728 64 96 128.8 96 208c0 5.472 0.992 10.688 1.536 16H96v576c0 88.032 68.544 160 153.92 160H896V288H234.656C193.792 288 160 252.512 160 208S193.792 128 234.656 128H896V64z m-432 288H640v172.192l-68.192-53.696a31.968 31.968 0 0 0-39.584 0L464 524.192V352z m-229.344 0H400v238.112a32 32 0 0 0 51.808 25.152l100.192-78.912 100.192 78.912A32 32 0 0 0 704 590.112V352h128v544H249.92C200.608 896 160 853.344 160 800V329.024c21.536 14.368 47.04 22.976 74.656 22.976zM255.776 176H832v64H255.776z" /></svg>