<?xml version="1.0" standalone="no"?><!DOCTYPE svg PUBLIC "-//W3C//DTD SVG 1.1//EN" "http://www.w3.org/Graphics/SVG/1.1/DTD/svg11.dtd"><svg class="icon" width="128px" height="128.00px" viewBox="0 0 1024 1024" version="1.1" xmlns="http://www.w3.org/2000/svg"><path fill="#000000" d="M941.248 352L672 82.752A64 64 0 0 0 626.752 64H128a64 64 0 0 0-64 64v768a64 64 0 0 0 64 64h768a64 64 0 0 0 64-64V397.248A64 64 0 0 0 941.248 352zM256 128h48v160H256V128z m112 0H512v160h-144V128zM256 896v-192h512v192H256z m640 0h-64v-224a32 32 0 0 0-32-32H224a32 32 0 0 0-32 32v224H128V128h64v192a32 32 0 0 0 32 32h320a32 32 0 0 0 32-32V128h50.752L896 397.248V896z" /></svg>