<?xml version="1.0" standalone="no"?><!DOCTYPE svg PUBLIC "-//W3C//DTD SVG 1.1//EN" "http://www.w3.org/Graphics/SVG/1.1/DTD/svg11.dtd"><svg class="icon" width="128px" height="128.00px" viewBox="0 0 1024 1024" version="1.1" xmlns="http://www.w3.org/2000/svg"><path fill="#000000" d="M490.432 347.552l-15.456-0.736h-19.232v58.048h32.416c10.816 0 19.104-7.552 24.896-22.624v-9.408c0-10.816-7.552-19.232-22.624-25.28zM928 640h32V160h-32v-27.072C928 77.28 883.552 32 828.928 32H195.04C140.448 32 96 77.28 96 132.928V160H64v480h32v251.072C96 946.72 140.448 992 195.04 992h480.032a31.872 31.872 0 0 0 20.96-7.84l153.856-133.632a32 32 0 1 0-41.92-48.32L704 892.512v-119.552c0-20.384 15.712-36.96 35.072-36.96h157.632a32 32 0 0 0 32-32c0-1.792-0.736-3.36-1.024-5.088 0-0.576 0.32-1.056 0.32-1.664V640zM160 132.928C160 112.576 175.712 96 195.04 96h633.888C848.288 96 864 112.576 864 132.928V160H160v-27.072zM709.472 474.24c8.288 3.008 15.712 4.512 22.24 4.512h6.016c12.32 0 23.744-3.904 34.304-11.68v-15.456h-47.136c-10.816 0-19.36-7.904-25.632-23.744v-9.408c0-7.776 4.896-15.2 14.688-22.24 4.288-3.008 11.936-4.544 23.008-4.544h57.312c19.872 0 32.16 7.168 36.96 21.504l0.768 5.248v65.984c0 13.568-16.704 28.64-50.144 45.248-17.088 5.792-30.656 8.672-40.704 8.672h-12.448c-32.416 0-62.592-14.944-90.496-44.864-19.104-25.152-28.64-49.888-28.64-74.272v-12.064c0-32.416 14.944-62.592 44.864-90.464C679.552 297.536 704.32 288 728.704 288h12.448c20.352 0 42.72 7.776 67.104 23.36 15.84 11.072 23.744 21.888 23.744 32.448v5.28c0 4.768-3.008 10.944-9.056 18.464-7.552 5.28-14.336 7.936-20.352 7.936-8.8 0-18.464-5.152-29.024-15.456-11.552-8.288-23.488-12.448-35.808-12.448h-6.016c-24.896 0-44.224 13.568-58.048 40.704a63.04 63.04 0 0 0-4.512 21.856v6.016c-0.064 24.896 13.408 44.256 40.288 58.08z m-136.48-102.176v8.672c0 26.144-13.312 49.504-39.968 70.112-16.352 9.312-31.04 13.952-44.096 13.952h-33.184v30.912c0 19.872-3.392 31.424-10.176 34.688 0 2.496-5.408 5.152-16.224 7.904h-7.552c-11.072 0-19.616-7.776-25.632-23.36V313.632c0-11.072 7.776-19.616 23.36-25.632h69.376c25.888 0 49.12 13.184 69.728 39.584 9.6 16.352 14.368 31.168 14.368 44.48zM324.32 311.36v128.192c0 32.16-15.968 59.936-47.872 83.328-17.856 10.304-34.688 15.456-50.528 15.456h-8.288c-11.072 0-19.616-7.776-25.632-23.36v-9.792c0-9.312 6.4-17.344 19.232-24.128l27.904-5.28c17.088-10.048 25.632-22.368 25.632-36.96v-111.968c0-19.84 5.92-31.776 17.728-35.808 0-1.248 2.88-2.272 8.672-3.008h7.552c11.04-0.032 19.584 7.744 25.6 23.328zM640 772.928V928H195.04C175.712 928 160 911.424 160 891.072V640h704v32h-124.928C684.448 672 640 717.28 640 772.928z" /></svg>