<?xml version="1.0" standalone="no"?><!DOCTYPE svg PUBLIC "-//W3C//DTD SVG 1.1//EN" "http://www.w3.org/Graphics/SVG/1.1/DTD/svg11.dtd"><svg class="icon" width="128px" height="128.00px" viewBox="0 0 1024 1024" version="1.1" xmlns="http://www.w3.org/2000/svg"><path fill="#000000" d="M295.456 371.424v-8.352c0-9.568-6.688-17.024-20.032-22.368l-13.664-0.672h-17.056v51.392h28.704c9.568 0 16.928-6.656 22.048-20zM928 640h32V160h-32v-27.072C928 77.28 883.552 32 828.928 32H195.04C140.448 32 96 77.28 96 132.928V160H64v480h32v251.072C96 946.72 140.448 992 195.04 992h480.032a31.872 31.872 0 0 0 20.96-7.84l153.856-133.632a32 32 0 1 0-41.92-48.32L704 892.512v-119.552c0-20.384 15.712-36.96 35.072-36.96h157.632a32 32 0 0 0 32-32c0-1.792-0.736-3.36-1.024-5.088 0-0.576 0.32-1.056 0.32-1.664V640z m-64 32h-124.928C684.448 672 640 717.28 640 772.928V928H195.04C175.712 928 160 911.424 160 891.072V640h704v32zM192 488.864V310.688c0-9.792 6.912-17.344 20.672-22.688h61.408c22.912 0 43.488 11.68 61.728 35.04 8.448 14.464 12.672 27.584 12.672 39.36v7.68c0 23.136-11.776 43.808-35.36 62.048-14.464 8.224-27.488 12.352-39.04 12.352h-29.376v27.36c0 17.568-3.008 27.808-8.992 30.688 0 2.24-4.768 4.576-14.336 7.008h-6.688c-9.792 0.032-17.344-6.88-22.688-20.672z m188.864 0V310.688c0-9.568 6.688-17.12 20.032-22.688h9.344c7.328 0 19.008 9.12 35.04 27.36l104.448 103.776v-97.76c0-17.568 6.24-28.48 18.688-32.704L573.056 288h6.656c9.568 0 17.12 6.912 22.688 20.672v178.176c0 9.568-6.784 17.12-20.352 22.688h-8.992c-7.552 0-19.232-9.12-35.04-27.36l-104.448-103.776v94.752c0 16-3.232 26.144-9.664 30.368-5.568 4-10.112 6.016-13.664 6.016h-6.656c-9.824 0.032-17.376-6.88-22.72-20.672z m342.688-36.032c7.328 2.656 13.888 4 19.68 4h5.344c10.912 0 21.024-3.456 30.368-10.336v-13.664h-41.696c-9.568 0-17.12-7.008-22.688-21.024v-8.352c0-6.912 4.32-13.44 13.024-19.68 3.776-2.656 10.56-4 20.352-4h50.72c17.568 0 28.48 6.336 32.704 19.008l0.64 4.672v58.4c0 12-14.784 25.344-44.384 40.032-15.136 5.12-27.136 7.68-36.032 7.68h-11.008c-28.704 0-55.392-13.248-80.096-39.712-16.896-22.24-25.344-44.16-25.344-65.728v-10.688c0-28.704 13.248-55.392 39.712-80.096 22.24-16.896 44.16-25.344 65.728-25.344h11.008c18.016 0 37.824 6.912 59.392 20.672 14.016 9.792 21.024 19.36 21.024 28.704v4.672c0 4.224-2.656 9.664-8 16.352-6.656 4.672-12.672 7.008-18.016 7.008-7.776 0-16.352-4.576-25.696-13.664-10.24-7.328-20.8-11.008-31.712-11.008h-5.344c-22.016 0-39.168 12-51.392 36.032a55.936 55.936 0 0 0-4 19.36v5.344c0 22.016 11.904 39.136 35.712 51.36zM864 160H160v-27.072C160 112.576 175.712 96 195.04 96h633.888C848.288 96 864 112.576 864 132.928V160z" /></svg>